<svg xmlns="http://www.w3.org/2000/svg" viewBox="0 0 512 512"><path d="M196.3 409.6H42.7a8.5 8.5 0 0 0 0 17h153.6a8.5 8.5 0 0 0 0-17zM25.6 324.3h68.3a8.5 8.5 0 0 0 0-17.1H25.6a8.5 8.5 0 0 0 0 17zM153.6 367c0-4.8-3.8-8.6-8.5-8.6H8.5a8.5 8.5 0 0 0 0 17h136.6c4.7 0 8.5-3.8 8.5-8.5zM435.2 375.5H384a8.5 8.5 0 0 0 0 17h51.2a58.2 58.2 0 0 1 59.1 51.2H353.4l-273-273L209 41.9c7.1 22.4 23.4 66.1 49.4 92.1 29.2 29.2 79.8 35.1 99.9 36.4v68.5h-20.1a17 17 0 0 0-31.8 8.6 17 17 0 1 0 31.8 8.5h20.1v51.2h-20.1a17 17 0 0 0-31.8 8.5 17 17 0 1 0 31.8 8.5h20.1v8.6c0 2.3.9 4.4 2.5 6l17 17.1a8.5 8.5 0 1 0 12.1-12l-14.5-14.6V162c0-4.7-3.9-8.5-8.6-8.5-.6 0-65-.4-96.3-31.6-32-32-48.8-97.8-49-98.5a8.5 8.5 0 0 0-14.3-4l-145 145.1-11.7 11.7a29.5 29.5 0 0 0 .6 40.6l267 267c1.2 1.1 11.5 11 27.8 11h140.4a25.3 25.3 0 0 0 25.6-25.6v-17a76 76 0 0 0-76.8-76.8zm59.7 93.8c0 4.9-3.6 8.6-8.5 8.6H346c-9.3 0-15.7-6-15.7-6l-267-267c-4.4-4.5-4.7-12.5-.7-16.5l5.7-5.7 275.5 275.6a8.5 8.5 0 0 0 6 2.5H495v8.5z"/><path d="M273 230.4v102.4a8.5 8.5 0 0 0 17.1 0V230.4a8.5 8.5 0 0 0-17 0zM332.7 203a8.5 8.5 0 0 0 1.2-17 170.1 170.1 0 0 1-130.1-96.6 8.5 8.5 0 0 0-15.5 7.2A187.2 187.2 0 0 0 332.7 203z"/></svg>