<svg xmlns="http://www.w3.org/2000/svg" viewBox="0 0 512 512"><path d="M437 75C388.7 26.6 324.4 0 256 0S123.3 26.6 75 75C26.6 123.3 0 187.6 0 256s26.6 132.7 75 181c48.3 48.4 112.6 75 181 75s132.7-26.6 181-75c48.4-48.3 75-112.6 75-181s-26.6-132.7-75-181zM256 491.6C126 491.6 20.4 385.9 20.4 256S126.1 20.4 256 20.4 491.6 126.1 491.6 256 385.9 491.6 256 491.6z"/><path d="M401.6 146.1c-14-14-36.6-14-50.5 0L201 296.3 151.7 247a35.7 35.7 0 0 0-50.5 50.5l74.5 74.4a35.5 35.5 0 0 0 50.5 0l175.4-175.4c14-14 14-36.6 0-50.5zm-14.4 36L211.7 357.7a15.2 15.2 0 0 1-21.6 0L115.7 283a15.3 15.3 0 0 1 21.6-21.6l56.4 56.4c4 4 10.5 4 14.4 0l157.4-157.4a15.3 15.3 0 0 1 21.7 21.7zM462.1 298.1c-5.4-1.4-11 2-12.4 7.4A199.7 199.7 0 0 1 256 455.9a10.2 10.2 0 0 0 0 20.4 220 220 0 0 0 213.5-165.8c1.4-5.4-2-11-7.4-12.4zM466.1 245.8c-5.6 0-10.2 4.6-10.2 10.2 0 3 0 5.9-.2 8.7a10.2 10.2 0 1 0 20.4 1l.2-9.7c0-5.6-4.6-10.2-10.2-10.2z"/></svg>