<svg xmlns="http://www.w3.org/2000/svg" viewBox="0 0 479.3 479.3"><path d="M450 52.7a100.1 100.1 0 1 0-108 163.5c-4.4 6-8.8 10.5-12.1 13a193.4 193.4 0 0 0-38 37 102.2 102.2 0 0 0-76.6-82.3l-11.6-2.8-.7-2.9A138.4 138.4 0 0 0 85.5 72.3 10 10 0 0 0 83 92.2c49 6 89.4 42.4 100.5 90.5 5.1 22.1 10.3 41.1 15.4 56.4a10 10 0 0 0 19-6.3c-3-8.7-5.8-18.7-8.8-29.8l1.6.4a80.7 80.7 0 0 1 56.4 48.2 78.7 78.7 0 0 1-7 74 10 10 0 1 0 16.8 11l1.5-2.4a99.7 99.7 0 0 0 12-28.1 169 169 0 0 1 51.3-60.8 85.3 85.3 0 0 0 20.5-23.3 101.2 101.2 0 0 0 37-.5c-8.3 30-15.3 56.2-20.8 78.2-12.8 51.2-46.7 116.8-76.7 132.8-6.2 3.4-11.6 4.2-16.5 2.5-144.4-66.2-173.5-134.7-179.3-161A10 10 0 0 0 95 266c-24.2-6.1-45-21-58.9-42.2a99 99 0 0 1-14.2-74 10 10 0 0 0-19.6-4A119.3 119.3 0 0 0 88 285c4.7 16.6 15.6 40 39.8 67 33.5 37.4 83.8 71.5 149.4 101.5l.7.3c4 1.5 8.1 2.2 12.3 2.2 6.7 0 13.7-2 20.9-5.7 22-11.8 40.8-39.7 52.7-61a362 362 0 0 0 34-84.7c6.1-24.9 14.3-55.3 24.2-90.6a100.1 100.1 0 0 0 28-161.2zm-70.7 150.7a79.5 79.5 0 0 1-56.6-23.4c-15-15.1-23.4-35.2-23.4-56.6s8.3-41.5 23.4-56.6a79.8 79.8 0 0 1 113.2 0 80.1 80.1 0 0 1-56.6 136.6z"/><path d="M360.8 104.9a26.2 26.2 0 0 0 37 37 26.2 26.2 0 0 0-37-37zm22.9 22.9a6.2 6.2 0 1 1-8.8-8.8 6.2 6.2 0 0 1 8.8 8.8z"/><path d="M430.4 72.3a72.4 72.4 0 1 0-102.2 102.5A72.4 72.4 0 0 0 430.4 72.3zm-14.1 88a52.4 52.4 0 1 1-74-74 52.4 52.4 0 0 1 74 74z"/></svg>