<svg xmlns="http://www.w3.org/2000/svg" viewBox="0 0 481.4 481.4"><path d="M240.7 0C108 0 0 108 0 240.7s108 240.7 240.7 240.7c132.8 0 240.7-108 240.7-240.7S373.4 0 240.7 0zm113 415.2c.3-2.8.3-5.7-.2-8.5L343 354.6a52 52 0 0 0-41-40.9l-14-2.7c-8-1.6-14.4-7.9-16-16l-2.7-12.8c-.9-4.2.6-8.4 3.9-11.1 12.7-10.5 24.3-26 31-44.2 9.3-1.7 17.8-10.7 20.6-23 2.9-13.2-1.7-25.7-10.5-30.6 4.7-3.3 7.3-9.8 7.3-21.9 0-32-18.4-59.3-45.1-72.9l.3-2.7c0-14.7-16.6-26.6-37.1-26.6-20.6 0-37.2 11.9-37.2 26.6 0 1 .2 1.8.4 2.7a81.7 81.7 0 0 0-45.2 73c0 12 2.7 18.5 7.3 21.8-8.7 5-13.4 17.4-10.4 30.6 2.7 12.3 11.2 21.3 20.5 23a105.9 105.9 0 0 0 31 44.2c3.3 2.7 4.8 7 4 11l-2.8 13c-1.6 8-8 14.3-16 15.9l-14 2.7a52 52 0 0 0-41 40.9l-10.3 52.1c-.5 2.4-.6 4.8-.5 7.2a208 208 0 1 1 228.2 1.3z"/></svg>