<svg xmlns="http://www.w3.org/2000/svg" viewBox="0 0 439.7 439.7"><path d="M219.85 28.38c-48.96 0-88.8 39.84-88.8 88.8 0 48.96 39.84 88.8 88.8 88.8s88.8-39.84 88.8-88.8c0-48.97-39.84-88.8-88.8-88.8zM175.02 169.3l3.68-3.69a10 10 0 0 0-14.14-14.14l-2.68 2.68a68.33 68.33 0 0 1-10.1-26.97h4.14a10 10 0 0 0 0-20h-4.13a68.45 68.45 0 0 1 12.88-31.04l2.9 2.9a9.97 9.97 0 0 0 14.15 0 10 10 0 0 0 0-14.13L178.8 62a68.46 68.46 0 0 1 31.04-12.88v4.13a10 10 0 0 0 20 0v-4.13A68.45 68.45 0 0 1 260.89 62l-2.91 2.9a10 10 0 0 0 14.14 14.15l2.9-2.91a68.45 68.45 0 0 1 12.89 31.04h-4.14a10 10 0 0 0 0 20h4.14a68.33 68.33 0 0 1-10.1 26.97l-2.67-2.68a10 10 0 0 0-14.15 14.14l3.69 3.69a68.48 68.48 0 0 1-44.83 16.67 68.48 68.48 0 0 1-44.83-16.67z"/><path d="M363.16 58.35h-41.95C300.25 22.2 261.96 0 219.85 0s-80.4 22.2-101.36 58.35H76.54a46.61 46.61 0 0 0-46.56 46.56v288.23a46.62 46.62 0 0 0 46.56 46.56h286.62a46.61 46.61 0 0 0 46.56-46.56V104.9a46.61 46.61 0 0 0-46.56-46.56zm26.56 334.79a26.6 26.6 0 0 1-26.56 26.56H76.54a26.6 26.6 0 0 1-26.56-26.56V104.9a26.6 26.6 0 0 1 26.56-26.56h47.88a10 10 0 0 0 8.9-5.44C150.04 40.27 183.2 20 219.84 20s69.8 20.27 86.53 52.9a10 10 0 0 0 8.9 5.45h47.88a26.6 26.6 0 0 1 26.56 26.56v288.23z"/><path d="M219.85 71.66a10 10 0 0 0-10 10v35.52a10 10 0 0 0 20 0V81.66a10 10 0 0 0-10-10z"/></svg>