<svg xmlns="http://www.w3.org/2000/svg" viewBox="0 0 429.3 429.3"><path d="M333.7 262l-.2-.3A151.6 151.6 0 0 1 321.2 120c14.8-35 22.3-72 22.3-109.9a10 10 0 0 0-20 0c0 27.1-4.1 53.7-12.3 79.4a308.7 308.7 0 0 0-193 0A260 260 0 0 1 105.7 10a10 10 0 0 0-20 0c0 38 7.5 75 22.3 109.9A151.1 151.1 0 0 1 95.6 262c-18 27.8-27.4 60-27.4 93.2v64.1a10 10 0 0 0 20 0v-50.7c14.6-11.4 41-11 64.8 1.6a86.4 86.4 0 0 1 31.6 27.7v21.4a10 10 0 0 0 20 0v-14c6.7.2 13.4.2 20.1 0v14a10 10 0 0 0 20 0V398a86.4 86.4 0 0 1 31.6-27.7c23.8-12.5 50.3-13 64.8-1.6v50.7a10 10 0 0 0 20 0v-64.2c0-33-9.5-65.3-27.4-93zm-193.5-82.8a171 171 0 0 0-13.7-67.1l-1.6-4c58.3-19 121.2-19 179.5 0l-1.6 4a171.6 171.6 0 0 0 13.8 160.3 286.7 286.7 0 0 1-203.9 0c18-27.9 27.5-60.1 27.5-93.2zM267 352.5c-15.4 8-28.6 19.5-37.8 32.7-9.7.3-19.4.3-29 0a107.2 107.2 0 0 0-37.9-32.7c-25.4-13.4-53.1-15.5-73.8-7 1.2-19.3 6.1-38.1 14.4-55.5a306.6 306.6 0 0 0 223.5 0 151.4 151.4 0 0 1 14.4 55.6c-20.7-8.6-48.4-6.5-73.8 7z"/><circle cx="214.7" cy="224.3" r="9.8"/></svg>