<svg xmlns="http://www.w3.org/2000/svg"><symbol id="boot" viewBox="0 0 512 512"><path d="M196.3 409.6H42.7a8.5 8.5 0 0 0 0 17h153.6a8.5 8.5 0 0 0 0-17zM25.6 324.3h68.3a8.5 8.5 0 0 0 0-17.1H25.6a8.5 8.5 0 0 0 0 17zm128 42.7c0-4.8-3.8-8.6-8.5-8.6H8.5a8.5 8.5 0 0 0 0 17h136.6c4.7 0 8.5-3.8 8.5-8.5zm281.6 8.5H384a8.5 8.5 0 0 0 0 17h51.2a58.2 58.2 0 0 1 59.1 51.2H353.4l-273-273L209 41.9c7.1 22.4 23.4 66.1 49.4 92.1 29.2 29.2 79.8 35.1 99.9 36.4v68.5h-20.1a17 17 0 0 0-31.8 8.6 17 17 0 1 0 31.8 8.5h20.1v51.2h-20.1a17 17 0 0 0-31.8 8.5 17 17 0 1 0 31.8 8.5h20.1v8.6c0 2.3.9 4.4 2.5 6l17 17.1a8.5 8.5 0 1 0 12.1-12l-14.5-14.6V162c0-4.7-3.9-8.5-8.6-8.5-.6 0-65-.4-96.3-31.6-32-32-48.8-97.8-49-98.5a8.5 8.5 0 0 0-14.3-4l-145 145.1-11.7 11.7a29.5 29.5 0 0 0 .6 40.6l267 267c1.2 1.1 11.5 11 27.8 11h140.4a25.3 25.3 0 0 0 25.6-25.6v-17a76 76 0 0 0-76.8-76.8zm59.7 93.8c0 4.9-3.6 8.6-8.5 8.6H346c-9.3 0-15.7-6-15.7-6l-267-267c-4.4-4.5-4.7-12.5-.7-16.5l5.7-5.7 275.5 275.6a8.5 8.5 0 0 0 6 2.5H495v8.5z"/><path d="M273 230.4v102.4a8.5 8.5 0 0 0 17.1 0V230.4a8.5 8.5 0 0 0-17 0zm59.7-27.4a8.5 8.5 0 0 0 1.2-17 170.1 170.1 0 0 1-130.1-96.6 8.5 8.5 0 0 0-15.5 7.2A187.2 187.2 0 0 0 332.7 203z"/></symbol><symbol id="check" viewBox="0 0 512 512"><path d="M437 75C388.7 26.6 324.4 0 256 0S123.3 26.6 75 75C26.6 123.3 0 187.6 0 256s26.6 132.7 75 181c48.3 48.4 112.6 75 181 75s132.7-26.6 181-75c48.4-48.3 75-112.6 75-181s-26.6-132.7-75-181zM256 491.6C126 491.6 20.4 385.9 20.4 256S126.1 20.4 256 20.4 491.6 126.1 491.6 256 385.9 491.6 256 491.6z"/><path d="M401.6 146.1c-14-14-36.6-14-50.5 0L201 296.3 151.7 247a35.7 35.7 0 0 0-50.5 50.5l74.5 74.4a35.5 35.5 0 0 0 50.5 0l175.4-175.4c14-14 14-36.6 0-50.5zm-14.4 36L211.7 357.7a15.2 15.2 0 0 1-21.6 0L115.7 283a15.3 15.3 0 0 1 21.6-21.6l56.4 56.4c4 4 10.5 4 14.4 0l157.4-157.4a15.3 15.3 0 0 1 21.7 21.7zm74.9 116c-5.4-1.4-11 2-12.4 7.4A199.7 199.7 0 0 1 256 455.9a10.2 10.2 0 0 0 0 20.4 220 220 0 0 0 213.5-165.8c1.4-5.4-2-11-7.4-12.4zm4-52.3c-5.6 0-10.2 4.6-10.2 10.2 0 3 0 5.9-.2 8.7a10.2 10.2 0 1 0 20.4 1l.2-9.7c0-5.6-4.6-10.2-10.2-10.2z"/></symbol><symbol id="dumbbell" viewBox="0 0 479.3 479.3"><path d="M450 52.7a100.1 100.1 0 1 0-108 163.5c-4.4 6-8.8 10.5-12.1 13a193.4 193.4 0 0 0-38 37 102.2 102.2 0 0 0-76.6-82.3l-11.6-2.8-.7-2.9A138.4 138.4 0 0 0 85.5 72.3 10 10 0 0 0 83 92.2c49 6 89.4 42.4 100.5 90.5 5.1 22.1 10.3 41.1 15.4 56.4a10 10 0 0 0 19-6.3c-3-8.7-5.8-18.7-8.8-29.8l1.6.4a80.7 80.7 0 0 1 56.4 48.2 78.7 78.7 0 0 1-7 74 10 10 0 1 0 16.8 11l1.5-2.4a99.7 99.7 0 0 0 12-28.1 169 169 0 0 1 51.3-60.8 85.3 85.3 0 0 0 20.5-23.3 101.2 101.2 0 0 0 37-.5c-8.3 30-15.3 56.2-20.8 78.2-12.8 51.2-46.7 116.8-76.7 132.8-6.2 3.4-11.6 4.2-16.5 2.5-144.4-66.2-173.5-134.7-179.3-161a10 10 0 0 0-10.9-8c-24.2-6.1-45-21-58.9-42.2a99 99 0 0 1-14.2-74 10 10 0 0 0-19.6-4A119.3 119.3 0 0 0 88 285c4.7 16.6 15.6 40 39.8 67 33.5 37.4 83.8 71.5 149.4 101.5l.7.3c4 1.5 8.1 2.2 12.3 2.2 6.7 0 13.7-2 20.9-5.7 22-11.8 40.8-39.7 52.7-61a362 362 0 0 0 34-84.7c6.1-24.9 14.3-55.3 24.2-90.6a100.1 100.1 0 0 0 28-161.2zm-70.7 150.7a79.5 79.5 0 0 1-56.6-23.4c-15-15.1-23.4-35.2-23.4-56.6s8.3-41.5 23.4-56.6a79.8 79.8 0 0 1 113.2 0 80.1 80.1 0 0 1-56.6 136.6z"/><path d="M360.8 104.9a26.2 26.2 0 0 0 37 37 26.2 26.2 0 0 0-37-37zm22.9 22.9a6.2 6.2 0 1 1-8.8-8.8 6.2 6.2 0 0 1 8.8 8.8z"/><path d="M430.4 72.3a72.4 72.4 0 1 0-102.2 102.5A72.4 72.4 0 0 0 430.4 72.3zm-14.1 88a52.4 52.4 0 1 1-74-74 52.4 52.4 0 0 1 74 74z"/></symbol><symbol id="male-avatar-circle" viewBox="0 0 481.4 481.4"><path d="M240.7 0C108 0 0 108 0 240.7s108 240.7 240.7 240.7c132.8 0 240.7-108 240.7-240.7S373.4 0 240.7 0zm127.6 404.8c0-2-.1-4-.5-5.8l-11.6-58.3c-4.6-23-22.6-41-45.7-45.6l-15.7-3.1c-9-1.8-16.1-8.8-18-17.8l-3-14.4c-1-4.7.8-9.4 4.4-12.4 14.1-11.8 27.1-29 34.6-49.4 10.5-1.9 20-12 23-25.7 3.8-17-3.7-33.3-16.8-36.2h-.4c-4-44.4-21-77.2-77.9-77.2-55.9 0-73.6 32.8-77.8 77.2h-.5c-13 3-20.6 19.1-16.8 36.2 3 13.8 12.6 23.8 23 25.7a118.3 118.3 0 0 0 34.6 49.4c3.7 3 5.3 7.7 4.4 12.4l-3 14.4c-1.9 9-9 16-18 17.8l-15.6 3a58.1 58.1 0 0 0-45.8 45.7L113.6 399c-.3 1.9-.4 3.8-.4 5.8a207.6 207.6 0 0 1-80.6-164C32.6 126 126 32.5 240.7 32.5c114.8 0 208.1 93.4 208.1 208.1 0 66.7-31.6 126-80.5 164z"/></symbol><symbol id="people" viewBox="0 0 481.4 481.4"><path d="M240.7 0C108 0 0 108 0 240.7s108 240.7 240.7 240.7c132.8 0 240.7-108 240.7-240.7S373.4 0 240.7 0zm113 415.2c.3-2.8.3-5.7-.2-8.5L343 354.6a52 52 0 0 0-41-40.9l-14-2.7c-8-1.6-14.4-7.9-16-16l-2.7-12.8c-.9-4.2.6-8.4 3.9-11.1 12.7-10.5 24.3-26 31-44.2 9.3-1.7 17.8-10.7 20.6-23 2.9-13.2-1.7-25.7-10.5-30.6 4.7-3.3 7.3-9.8 7.3-21.9 0-32-18.4-59.3-45.1-72.9l.3-2.7c0-14.7-16.6-26.6-37.1-26.6-20.6 0-37.2 11.9-37.2 26.6 0 1 .2 1.8.4 2.7a81.7 81.7 0 0 0-45.2 73c0 12 2.7 18.5 7.3 21.8-8.7 5-13.4 17.4-10.4 30.6 2.7 12.3 11.2 21.3 20.5 23a105.9 105.9 0 0 0 31 44.2c3.3 2.7 4.8 7 4 11l-2.8 13c-1.6 8-8 14.3-16 15.9l-14 2.7a52 52 0 0 0-41 40.9L126 406.7c-.5 2.4-.6 4.8-.5 7.2a208 208 0 1 1 228.2 1.3z"/></symbol><symbol id="salad" viewBox="0 0 59.2 59.2"><path d="M58.6 28.4c-.5-.5-1.1-.8-1.8-.8h-.2A10 10 0 0 0 52 13.4a10 10 0 0 0-20 0 2.7 2.7 0 0 0-2.9 1.1l-.2.4c-.2.3-.6.4-1 .2l-.3-.2a2.7 2.7 0 0 0-3.9 2.3v.4l-.2.6a.7.7 0 0 1-.4-.6v-.4c-.1-.9-.6-1.6-1.2-2l3.1-4.5a4 4 0 0 0-1-5.6 4 4 0 0 0-5.5 1l-5.8 8.2a4 4 0 0 0-.4.9H12l-.4-.3a2.7 2.7 0 0 0-3.9 2.3v.4c0 .4-.3.6-.7.7h-.4a2.7 2.7 0 0 0-2.3 3.9l.2.4c.2.3 0 .7-.2.9l-.4.2c-.7.6-1.1 1.4-1.1 2.3 0 .6.2 1.1.5 1.6h-1A2.4 2.4 0 0 0 0 30.2c.6 8.7 6.2 13 14.3 17 1 .4 1.7 1.2 2.2 2 .4.9.3 2-.2 3-.5.7-.5 1.5 0 2.3.3.7 1 1.1 2 1.1H41c.8 0 1.6-.4 2-1.1.4-.8.4-1.6 0-2.4a3 3 0 0 1-.2-2.9c.4-.8 1.2-1.6 2-2 8.2-4 13.8-8.3 14.4-17 0-.7-.2-1.4-.6-1.8zM56 22.6a8 8 0 0 1-1.8 5H49v-4a1 1 0 1 0-2 0v4h-3.5l.2-.3a2.8 2.8 0 0 0 .2-.7l.1-.6c0-.9-.4-1.7-1.2-2.2l-.2-.2h.2a8.6 8.6 0 0 0 1-.2h.3l.6-.2h.3l.9-.4h.2l.6-.4.3-.1a10 10 0 0 0 1.2-.8l.3-.3.3-.3.3-.3.3-.3.6-.7.2-.3.3-.5.2-.2.2-.6.2-.2.2-.6v-.1l.5-1.5a8 8 0 0 1 4.2 7zm-14-17a8 8 0 0 1 8 8v.5c0 1-.3 2-.8 3a8 8 0 0 1-.3.5v.1l-.4.5v.1l-.4.5-.1.1-.4.4-.2.2-.3.3-.2.1-.4.3-.2.2-.4.2-.3.1-.4.2-.3.1-.4.2h-.3l-.4.2h-.3l-.4.1h-.4v-.7l-.1-.4v-.2a2.7 2.7 0 0 0-2.4-1.9h-.4a.7.7 0 0 1-.6-.4l2-2.2a1 1 0 1 0-1.3-1.4l-1.4 1.4c-.3-.2-.5-.5-.8-.6l-.6-.3h-.3l-.4-.1H35.8l-.6.2-.4.2H34a8 8 0 0 1 8-9.5zM25.7 17.8v-.4c0-.3.2-.5.4-.6h.6l.4.1c1.2.6 2.7.2 3.4-.9l.3-.3c.3-.4.9-.4 1.2 0l.2.3c.5.8 1.4 1.2 2.2 1.2h.6l.2-.1.4-.2.4-.1h.7c.2.1.3.3.4.6v.4a2.7 2.7 0 0 0 2.5 2.5h.4c.2 0 .5.2.6.4v.7l-.2.3v.1c-.3.8-.3 1.7.1 2.5l.2.2.2.2.1.2.3.2.4.3a.7.7 0 0 1 0 1.2l-.4.2-.3.4-.2.1-.1.2-.1.1H27.5l.2-.3A2.8 2.8 0 0 0 28 26v-.7l-.5-.8c-.1-.3-.4-.5-.7-.7l-.3-.3a.7.7 0 0 1-.3-1l.2-.3.2-.6V20.1l-.2-.2v-.2l-.3-.3-.1-.2-.4-.3-.2-.1.3-1zM20 7.3a2 2 0 0 1 3.3 2.3l-4 5.5-1.8 2.7a2 2 0 0 1-2.8.5 2 2 0 0 1-.3-.4l-.1-.1a2 2 0 0 1-.3-.4 2 2 0 0 1 0-.6v-.6c0-.3.1-.5.3-.7L20 7.3zM5.4 26.8l-.3-.2-.3-.6c0-.2 0-.5.3-.6l.3-.3c1.1-.7 1.5-2.2 1-3.4l-.2-.3a.7.7 0 0 1 0-.7c.1-.2.3-.4.6-.4h.4a2.7 2.7 0 0 0 2.5-2.5v-.4c0-.3.2-.5.4-.6h.6l.4.1c.3.2.6.2 1 .3v.4l.2.4c0 .2 0 .3.2.4l.1.3.3.5.2.1a4 4 0 0 0 1.2 1h.2a3.9 3.9 0 0 0 1.2.3h1c1-.2 2-.8 2.6-1.7l1.4-2c.2 0 .3.2.4.5v.4a2.7 2.7 0 0 0 2.5 2.5h.7v.2l.2.1v.1l.2.3v.3l-.3.4c-.2.5-.3 1-.2 1.4a2.8 2.8 0 0 0 1.1 2l.3.2a.7.7 0 0 1 .3 1v.1l-.2.2-.4.2-.3.4h-.1l-.3.4H6.2l-.8-.8zM44 45.4a6.7 6.7 0 0 0-3 3 5 5 0 0 0 .2 4.8v.3l-.2.1H18.2l-.2-.1v-.3a5 5 0 0 0 .2-4.9 6.7 6.7 0 0 0-3-3C7.4 41.8 2.5 37.9 2 30l.1-.3.3-.1h54.4l.3.1.1.3c-.5 7.8-5.4 11.7-13.2 15.4z"/><path d="M37 46.6h-8.7a1 1 0 1 0 0 2H37a1 1 0 1 0 0-2zm-15 2h3.4a1 1 0 1 0 0-2H22a1 1 0 1 0 0 2zm15 1H22a1 1 0 1 0 0 2h15a1 1 0 1 0 0-2zm2.9-36.7a1 1 0 0 0 1.4 0c.4-.4.4-1 0-1.4l-2.8-2.8A1 1 0 1 0 37 10l2.9 2.8zm5.6 5.7a1 1 0 0 0 1.4 0c.4-.4.4-1 0-1.5l-2.8-2.8a1 1 0 1 0-1.4 1.4l2.8 2.9zm-2.1-5.4c.3 0 .5-.1.7-.3l2.9-2.8a1 1 0 1 0-1.5-1.4l-2.8 2.8a1 1 0 0 0 .7 1.7zm5.6 8.4c0 .6.4 1 1 1h4a1 1 0 1 0 0-2h-4a1 1 0 0 0-1 1zm-18.5.5c.3 0 .5 0 .7-.3l1.5-1.5a1 1 0 1 0-1.4-1.4l-1.5 1.5a1 1 0 0 0 .7 1.7zm4.8 2.2a1 1 0 0 0 1.4 0c.4-.4.4-1 0-1.4l-1-1a1 1 0 1 0-1.4 1.4l1 1zm-4-.4l-1 1a1 1 0 1 0 1.4 1.4l1-1a1 1 0 1 0-1.4-1.4z"/></symbol><symbol id="scales" viewBox="0 0 439.7 439.7"><path d="M219.85 28.38c-48.96 0-88.8 39.84-88.8 88.8 0 48.96 39.84 88.8 88.8 88.8s88.8-39.84 88.8-88.8c0-48.97-39.84-88.8-88.8-88.8zM175.02 169.3l3.68-3.69a10 10 0 0 0-14.14-14.14l-2.68 2.68a68.33 68.33 0 0 1-10.1-26.97h4.14a10 10 0 0 0 0-20h-4.13a68.45 68.45 0 0 1 12.88-31.04l2.9 2.9a9.97 9.97 0 0 0 14.15 0 10 10 0 0 0 0-14.13L178.8 62a68.46 68.46 0 0 1 31.04-12.88v4.13a10 10 0 0 0 20 0v-4.13A68.45 68.45 0 0 1 260.89 62l-2.91 2.9a10 10 0 0 0 14.14 14.15l2.9-2.91a68.45 68.45 0 0 1 12.89 31.04h-4.14a10 10 0 0 0 0 20h4.14a68.33 68.33 0 0 1-10.1 26.97l-2.67-2.68a10 10 0 0 0-14.15 14.14l3.69 3.69a68.48 68.48 0 0 1-44.83 16.67 68.48 68.48 0 0 1-44.83-16.67z"/><path d="M363.16 58.35h-41.95C300.25 22.2 261.96 0 219.85 0s-80.4 22.2-101.36 58.35H76.54a46.61 46.61 0 0 0-46.56 46.56v288.23a46.62 46.62 0 0 0 46.56 46.56h286.62a46.61 46.61 0 0 0 46.56-46.56V104.9a46.61 46.61 0 0 0-46.56-46.56zm26.56 334.79a26.6 26.6 0 0 1-26.56 26.56H76.54a26.6 26.6 0 0 1-26.56-26.56V104.9a26.6 26.6 0 0 1 26.56-26.56h47.88a10 10 0 0 0 8.9-5.44C150.04 40.27 183.2 20 219.84 20s69.8 20.27 86.53 52.9a10 10 0 0 0 8.9 5.45h47.88a26.6 26.6 0 0 1 26.56 26.56v288.23z"/><path d="M219.85 71.66a10 10 0 0 0-10 10v35.52a10 10 0 0 0 20 0V81.66a10 10 0 0 0-10-10z"/></symbol><symbol id="soc-facebook" viewBox="0 0 50 50"><path d="M30 26l1-5h-5v-4c0-1.5.8-2 3-2h2v-5h-4c-4 0-7 2.4-7 7v4h-5v5h5v14h6V26h4z"/><path d="M25 1C11.7 1 1 11.7 1 25s10.7 24 24 24 24-10.7 24-24S38.3 1 25 1zm0 43C14.5 44 6 35.5 6 25S14.5 6 25 6s19 8.5 19 19-8.5 19-19 19z"/></symbol><symbol id="soc-instagram" viewBox="0 0 50 50"><path d="M34 12.6H15.6c-1.6 0-3 1.3-3 3v19c0 1.5 1.4 2.8 3 2.8h19c1.5 0 3-1.3 3-3v-19c-.2-1.4-2-2.7-3.4-2.8zm-9 8c2.5 0 4.5 2 4.5 4.4 0 2.5-2 4.5-4.5 4.5s-4.5-2-4.5-4.5 2-4.5 4.5-4.5zm9 11.8c0 1-.6 1.6-1.5 1.6H17.6c-1 0-1.6-.7-1.6-1.6V23h2c-.3.6-.4 1.2-.4 2 0 4 3.3 7.4 7.4 7.4s7.4-3.3 7.4-7.4c0-.7 0-1.4-.3-2h2v9.4zm0-15.6v2.5c0 .4-.3.8-.7.8h-2.5c-.4 0-.8-.3-.8-.7v-2.5c0-.5.4-.8.8-.8h2.5c.4 0 .8.3.8.8z"/><path d="M25 1C11.7 1 1 11.7 1 25s10.7 24 24 24 24-10.7 24-24S38.3 1 25 1zm0 43C14.5 44 6 35.5 6 25S14.5 6 25 6s19 8.5 19 19-8.5 19-19 19z"/></symbol><symbol id="soc-vk" viewBox="0 0 50 50"><path d="M26 34c1 0 1-1.4 1-2 0-1 1-2 2-2s2.7 1.7 4 3c1 1 1 1 2 1h3s2 0 2-2c0-.6-.7-1.7-3-4-2-2-3-1 0-5 1.8-2.5 3.2-4.7 3-5.3-.2-.6-5.3-1.6-6-.7-2 3-2.4 3.7-3 5-1 2-1 3-2 3s-1-2-1-3c0-3.3.5-5.6-1-6h-3c-1.6 0-3 1-3 1s-1.2 1-1 1c.3 0 2-.4 2 1v2s0 4-1 4-3-4-5-7c-.8-1.2-1-1-2-1h-3c-1 0-1 .6-1 1 2 5 3.4 8 7.2 12 3.5 3.7 5.8 4 7.8 4h1z"/><path d="M25 1C11.7 1 1 11.7 1 25s10.7 24 24 24 24-10.7 24-24S38.3 1 25 1zm0 43C14.5 44 6 35.5 6 25S14.5 6 25 6s19 8.5 19 19-8.5 19-19 19z"/></symbol><symbol id="transport" viewBox="0 0 512 512"><path d="M476.2 231.4l-13.3-53a8 8 0 0 0 6.3-8V162a33.7 33.7 0 0 0-33.6-33.6h-60.4v-17.7c0-9.1-7.4-16.5-16.6-16.5H50.8c-9.2 0-16.6 7.4-16.6 16.5V256a8 8 0 0 0 16 0V110.6c0-.3.3-.5.6-.5h307.8c.3 0 .5.2.5.5V256a8 8 0 0 0 16 0v-9h94.6c11.7 0 21.6 7.6 25 18h-25a8 8 0 0 0-8 8.1v17.1a25.1 25.1 0 0 0 25.2 25.1h9v35.3H475a50.9 50.9 0 0 0-96 0h-3.8v-60.4a8 8 0 0 0-16 0v60.4H192.7a50.9 50.9 0 0 0-96 0h-46a.5.5 0 0 1-.6-.5v-17.7H85a8 8 0 0 0 0-16H8a8 8 0 0 0 0 16h26.2v17.7c0 9.1 7.4 16.5 16.6 16.5H94v.6a50.8 50.8 0 0 0 101.5 0v-.6h180.7v.6a50.8 50.8 0 0 0 101.5 0v-.6H504a8 8 0 0 0 8-8v-85.5a42.3 42.3 0 0 0-35.8-41.7zm-101-87.1h60.4c9.7 0 17.6 8 17.6 17.6v.6h-78v-18.2zm0 86.6v-52.4h71.2l13.1 52.4h-84.3zm-230.4 171a34.8 34.8 0 1 1 .1-69.6 34.8 34.8 0 0 1 0 69.6zm282.2 0a34.8 34.8 0 1 1 .1-69.6 34.8 34.8 0 0 1 0 69.6zm69-102.6h-9.1c-5 0-9.1-4-9.1-9.1v-9H496v18z"/><path d="M144.8 350.6a16.6 16.6 0 1 0 0 33.2 16.6 16.6 0 0 0 0-33.2zm282.2 0a16.6 16.6 0 1 0 0 33.2 16.6 16.6 0 0 0 0-33.2zm-94-34.2H213.2a8 8 0 0 0 0 16H333a8 8 0 0 0 0-16zm-205.3-34.2H25.1a8 8 0 0 0 0 16h102.6a8 8 0 0 0 0-16zm151.1-108.8a8 8 0 0 0-11.4 0l-71.3 71.3-37-37.1a8 8 0 1 0-11.4 11.3l42.8 42.8a8 8 0 0 0 11.3 0l77-77a8 8 0 0 0 0-11.3z"/></symbol><symbol id="waist" viewBox="0 0 429.3 429.3"><path d="M333.7 262l-.2-.3A151.6 151.6 0 0 1 321.2 120c14.8-35 22.3-72 22.3-109.9a10 10 0 0 0-20 0c0 27.1-4.1 53.7-12.3 79.4a308.7 308.7 0 0 0-193 0A260 260 0 0 1 105.7 10a10 10 0 0 0-20 0c0 38 7.5 75 22.3 109.9A151.1 151.1 0 0 1 95.6 262c-18 27.8-27.4 60-27.4 93.2v64.1a10 10 0 0 0 20 0v-50.7c14.6-11.4 41-11 64.8 1.6a86.4 86.4 0 0 1 31.6 27.7v21.4a10 10 0 0 0 20 0v-14c6.7.2 13.4.2 20.1 0v14a10 10 0 0 0 20 0V398a86.4 86.4 0 0 1 31.6-27.7c23.8-12.5 50.3-13 64.8-1.6v50.7a10 10 0 0 0 20 0v-64.2c0-33-9.5-65.3-27.4-93zm-193.5-82.8a171 171 0 0 0-13.7-67.1l-1.6-4c58.3-19 121.2-19 179.5 0l-1.6 4a171.6 171.6 0 0 0 13.8 160.3 286.7 286.7 0 0 1-203.9 0c18-27.9 27.5-60.1 27.5-93.2zM267 352.5c-15.4 8-28.6 19.5-37.8 32.7-9.7.3-19.4.3-29 0a107.2 107.2 0 0 0-37.9-32.7c-25.4-13.4-53.1-15.5-73.8-7 1.2-19.3 6.1-38.1 14.4-55.5a306.6 306.6 0 0 0 223.5 0 151.4 151.4 0 0 1 14.4 55.6c-20.7-8.6-48.4-6.5-73.8 7z"/><circle cx="214.7" cy="224.3" r="9.8"/></symbol></svg>