<svg xmlns="http://www.w3.org/2000/svg" viewBox="0 0 512 512"><g fill="#ffdc16"><path d="M476.2 231.4l-13.3-53a8 8 0 0 0 6.3-8V162a33.7 33.7 0 0 0-33.6-33.6h-60.4v-17.7c0-9.1-7.4-16.5-16.6-16.5H50.8c-9.2 0-16.6 7.4-16.6 16.5V256a8 8 0 0 0 16 0V110.6c0-.3.3-.5.6-.5h307.8c.3 0 .5.2.5.5V256a8 8 0 0 0 16 0v-9h94.6c11.7 0 21.6 7.6 25 18h-25a8 8 0 0 0-8 8.1v17.1a25.1 25.1 0 0 0 25.2 25.1h9v35.3H475a50.9 50.9 0 0 0-96 0h-3.8v-60.4a8 8 0 0 0-16 0v60.4H192.7a50.9 50.9 0 0 0-96 0h-46a.5.5 0 0 1-.6-.5v-17.7H85a8 8 0 0 0 0-16H8a8 8 0 0 0 0 16h26.2v17.7c0 9.1 7.4 16.5 16.6 16.5H94v.6a50.8 50.8 0 0 0 101.5 0v-.6h180.7v.6a50.8 50.8 0 0 0 101.5 0v-.6H504a8 8 0 0 0 8-8v-85.5a42.3 42.3 0 0 0-35.8-41.7zm-101-87.1h60.4c9.7 0 17.6 8 17.6 17.6v.6h-78v-18.2zm0 86.6v-52.4h71.2l13.1 52.4h-84.3zm-230.4 171a34.8 34.8 0 1 1 .1-69.6 34.8 34.8 0 0 1 0 69.6zm282.2 0a34.8 34.8 0 1 1 .1-69.6 34.8 34.8 0 0 1 0 69.6zm69-102.6h-9.1c-5 0-9.1-4-9.1-9.1v-9H496v18z"/><path d="M144.8 350.6a16.6 16.6 0 1 0 0 33.2 16.6 16.6 0 0 0 0-33.2zM427 350.6a16.6 16.6 0 1 0 0 33.2 16.6 16.6 0 0 0 0-33.2zM333 316.4H213.2a8 8 0 0 0 0 16H333a8 8 0 0 0 0-16zM127.7 282.2H25.1a8 8 0 0 0 0 16h102.6a8 8 0 0 0 0-16zM278.8 173.4a8 8 0 0 0-11.4 0l-71.3 71.3-37-37.1a8 8 0 1 0-11.4 11.3l42.8 42.8a8 8 0 0 0 11.3 0l77-77a8 8 0 0 0 0-11.3z"/></g></svg>