<svg xmlns="http://www.w3.org/2000/svg" viewBox="0 0 481.4 481.4"><path d="M240.7 0C108 0 0 108 0 240.7s108 240.7 240.7 240.7c132.8 0 240.7-108 240.7-240.7S373.4 0 240.7 0zm127.6 404.8c0-2-.1-4-.5-5.8l-11.6-58.3c-4.6-23-22.6-41-45.7-45.6l-15.7-3.1c-9-1.8-16.1-8.8-18-17.8l-3-14.4c-1-4.7.8-9.4 4.4-12.4 14.1-11.8 27.1-29 34.6-49.4 10.5-1.9 20-12 23-25.7 3.8-17-3.7-33.3-16.8-36.2h-.4c-4-44.4-21-77.2-77.9-77.2-55.9 0-73.6 32.8-77.8 77.2h-.5c-13 3-20.6 19.1-16.8 36.2 3 13.8 12.6 23.8 23 25.7a118.3 118.3 0 0 0 34.6 49.4c3.7 3 5.3 7.7 4.4 12.4l-3 14.4c-1.9 9-9 16-18 17.8l-15.6 3a58.1 58.1 0 0 0-45.8 45.7L113.6 399c-.3 1.9-.4 3.8-.4 5.8a207.6 207.6 0 0 1-80.6-164C32.6 126 126 32.5 240.7 32.5c114.8 0 208.1 93.4 208.1 208.1 0 66.7-31.6 126-80.5 164z"/></svg>