<svg xmlns="http://www.w3.org/2000/svg" viewBox="0 0 211.6 211.6"><path d="M181 27.7A94 94 0 0 0 114 0a7.5 7.5 0 1 0 0 15c21.3 0 41.3 8.3 56.3 23.3s23.4 35 23.4 56.4a7.5 7.5 0 0 0 15 0 94 94 0 0 0-27.8-67z"/><path d="M150.1 94.7a7.5 7.5 0 1 0 15 0c0-28.2-23-51.1-51-51.1a7.5 7.5 0 0 0 0 15c19.8 0 36 16.2 36 36zM133.5 132.9c-11.4-.6-17.3 8-20 12a7.5 7.5 0 1 0 12.3 8.5c3.3-4.9 4.8-5.6 6.9-5.5 6.4.7 32 19.5 34.6 25.3.6 1.8.6 3.4-.1 5.5-2.7 8-7.1 13.6-12.9 16.2a24 24 0 0 1-19.2-.7A212 212 0 0 1 65.5 149a212 212 0 0 1-45.2-69.5 24 24 0 0 1-.6-19.3c2.6-5.7 8.2-10.1 16.2-12.8 2-.7 3.7-.7 5.4-.1 5.9 2.6 24.6 28.1 25.4 34.5.1 2.1-.7 3.6-5.5 7a7.5 7.5 0 1 0 8.5 12.3c4-2.8 12.6-8.6 12-20-.7-12-24-43.8-35.1-47.9-5-1.8-10.2-1.8-15.5 0-12 4-20.7 11.2-25 20.8-4.3 9.3-4.2 20 .3 31.2a226.8 226.8 0 0 0 48.7 74.5 227 227 0 0 0 74.3 48.4 44.5 44.5 0 0 0 16.8 3.5c5 0 9.9-1 14.4-3 9.6-4.5 16.8-13.1 20.8-25.1a22.7 22.7 0 0 0 0-15.5c-4.2-11.1-35.9-34.5-47.9-35.1z"/></svg>
