<svg xmlns="http://www.w3.org/2000/svg" viewBox="0 0 59.2 59.2"><path d="M58.6 28.4c-.5-.5-1.1-.8-1.8-.8h-.2A10 10 0 0 0 52 13.4a10 10 0 0 0-20 0 2.7 2.7 0 0 0-2.9 1.1l-.2.4c-.2.3-.6.4-1 .2l-.3-.2a2.7 2.7 0 0 0-3.9 2.3v.4l-.2.6a.7.7 0 0 1-.4-.6v-.4c-.1-.9-.6-1.6-1.2-2l3.1-4.5a4 4 0 0 0-1-5.6 4 4 0 0 0-5.5 1l-5.8 8.2a4 4 0 0 0-.4.9H12l-.4-.3a2.7 2.7 0 0 0-3.9 2.3v.4c0 .4-.3.6-.7.7h-.4a2.7 2.7 0 0 0-2.3 3.9l.2.4c.2.3 0 .7-.2.9l-.4.2c-.7.6-1.1 1.4-1.1 2.3 0 .6.2 1.1.5 1.6h-1A2.4 2.4 0 0 0 0 30.2c.6 8.7 6.2 13 14.3 17 1 .4 1.7 1.2 2.2 2 .4.9.3 2-.2 3-.5.7-.5 1.5 0 2.3.3.7 1 1.1 2 1.1H41c.8 0 1.6-.4 2-1.1.4-.8.4-1.6 0-2.4a3 3 0 0 1-.2-2.9c.4-.8 1.2-1.6 2-2 8.2-4 13.8-8.3 14.4-17 0-.7-.2-1.4-.6-1.8zM56 22.6a8 8 0 0 1-1.8 5H49v-4a1 1 0 1 0-2 0v4h-3.5l.2-.3a2.8 2.8 0 0 0 .2-.7l.1-.6c0-.9-.4-1.7-1.2-2.2l-.2-.2h.2a8.6 8.6 0 0 0 1-.2h.3l.6-.2h.3l.9-.4h.2l.6-.4.3-.1a10 10 0 0 0 1.2-.8l.3-.3.3-.3.3-.3.3-.3.6-.7.2-.3.3-.5.2-.2.2-.6.2-.2.2-.6v-.1l.5-1.5a8 8 0 0 1 4.2 7zm-14-17a8 8 0 0 1 8 8v.5c0 1-.3 2-.8 3a8 8 0 0 1-.3.5v.1l-.4.5v.1l-.4.5-.1.1-.4.4-.2.2-.3.3-.2.1-.4.3-.2.2-.4.2-.3.1-.4.2-.3.1-.4.2h-.3l-.4.2h-.3l-.4.1h-.4V21v-.2l-.1-.4v-.2a2.7 2.7 0 0 0-2.4-1.9h-.4a.7.7 0 0 1-.6-.4l2-2.2a1 1 0 1 0-1.3-1.4l-1.4 1.4c-.3-.2-.5-.5-.8-.6l-.6-.3h-.3l-.4-.1H36h-.2l-.6.2-.4.2H34A8 8 0 0 1 42 5.6zM25.7 17.8v-.4c0-.3.2-.5.4-.6h.6l.4.1c1.2.6 2.7.2 3.4-.9l.3-.3c.3-.4.9-.4 1.2 0l.2.3c.5.8 1.4 1.2 2.2 1.2H35l.2-.1.4-.2.4-.1h.7c.2.1.3.3.4.6v.4a2.7 2.7 0 0 0 2.5 2.5h.4c.2 0 .5.2.6.4v.7l-.2.3v.1c-.3.8-.3 1.7.1 2.5l.2.2.2.2.1.2.3.2.4.3a.7.7 0 0 1 0 1.2l-.4.2-.3.4-.2.1-.1.2-.1.1H27.5l.2-.3A2.8 2.8 0 0 0 28 26v-.4-.3l-.5-.8c-.1-.3-.4-.5-.7-.7l-.3-.3a.7.7 0 0 1-.3-1l.2-.3.2-.6v-.2-.4-.2-.4-.3l-.2-.2v-.2l-.3-.3-.1-.2-.4-.3-.2-.1.3-1zM20 7.3a2 2 0 0 1 3.3 2.3l-4 5.5-1.8 2.7a2 2 0 0 1-2.8.5 2 2 0 0 1-.3-.4l-.1-.1a2 2 0 0 1-.3-.4 2 2 0 0 1 0-.6v-.6c0-.3.1-.5.3-.7L20 7.3zM5.4 26.8l-.3-.2-.3-.6c0-.2 0-.5.3-.6l.3-.3c1.1-.7 1.5-2.2 1-3.4l-.2-.3a.7.7 0 0 1 0-.7c.1-.2.3-.4.6-.4h.4a2.7 2.7 0 0 0 2.5-2.5v-.4c0-.3.2-.5.4-.6h.6l.4.1c.3.2.6.2 1 .3v.4l.2.4c0 .2 0 .3.2.4l.1.3.3.5.2.1a4 4 0 0 0 1.2 1h.2a3.9 3.9 0 0 0 1.2.3h1c1-.2 2-.8 2.6-1.7l1.4-2c.2 0 .3.2.4.5v.4a2.7 2.7 0 0 0 2.5 2.5h.7v.2l.2.1v.1l.2.3v.3l-.3.4c-.2.5-.3 1-.2 1.4a2.8 2.8 0 0 0 1.1 2l.3.2a.7.7 0 0 1 .3 1v.1l-.2.2-.4.2-.3.4h-.1l-.3.4H6.2l-.8-.8zM44 45.4a6.7 6.7 0 0 0-3 3 5 5 0 0 0 .2 4.8v.3l-.2.1H18.2l-.2-.1v-.3a5 5 0 0 0 .2-4.9 6.7 6.7 0 0 0-3-3C7.4 41.8 2.5 37.9 2 30l.1-.3.3-.1h54.4l.3.1.1.3c-.5 7.8-5.4 11.7-13.2 15.4z"/><path d="M37 46.6h-8.7a1 1 0 1 0 0 2H37a1 1 0 1 0 0-2zM22 48.6h3.4a1 1 0 1 0 0-2H22a1 1 0 1 0 0 2zM37 49.6H22a1 1 0 1 0 0 2h15a1 1 0 1 0 0-2zM39.9 12.9a1 1 0 0 0 1.4 0c.4-.4.4-1 0-1.4l-2.8-2.8A1 1 0 1 0 37 10l2.9 2.8zM45.5 18.6a1 1 0 0 0 1.4 0c.4-.4.4-1 0-1.5l-2.8-2.8a1 1 0 1 0-1.4 1.4l2.8 2.9zM43.4 13.2c.3 0 .5-.1.7-.3l2.9-2.8a1 1 0 1 0-1.5-1.4l-2.8 2.8a1 1 0 0 0 .7 1.7zM49 21.6c0 .6.4 1 1 1h4a1 1 0 1 0 0-2h-4a1 1 0 0 0-1 1zM30.5 22.1c.3 0 .5 0 .7-.3l1.5-1.5a1 1 0 1 0-1.4-1.4l-1.5 1.5a1 1 0 0 0 .7 1.7zM35.3 24.3a1 1 0 0 0 1.4 0c.4-.4.4-1 0-1.4l-1-1a1 1 0 1 0-1.4 1.4l1 1zM31.3 23.9l-1 1a1 1 0 1 0 1.4 1.4l1-1a1 1 0 1 0-1.4-1.4z"/></svg>